# xmcd
# 
# Track frame offsets:
#     150
#     32840
#     46235
#     68537
#     86480
#     116150
#     149632
# 
# Disc length: 2327
# 
# Revision: 1
# Processed by: cddbd v1.5.2PL0 Copyright (c) Steve Scherf et al.
# Submitted via: BonkEnc v1.0.8
# 
DISCID=5e091507
DTITLE=Urbie Green - The Fox
DYEAR=1976
DGENRE=Fusion
TTITLE0=Another Star
TTITLE1=Goodbye
TTITLE2=Mertensia
TTITLE3=You don't know what love is
TTITLE4=Manteca
TTITLE5=Foxglove suite (from Tristan and Isolde)
TTITLE6=Please send me someone to love
EXTD=YEAR: 1976
EXTT0=
EXTT1=
EXTT2=
EXTT3=
EXTT4=
EXTT5=
EXTT6=
PLAYORDER=
